<svg width="51" height="46" viewBox="0 0 51 46" fill="none" xmlns="http://www.w3.org/2000/svg">
<path d="M46.92 12.4763C44.8785 12.8814 39.78 14.2582 36.72 12.4764C33.66 10.6945 34.68 9.16696 26.52 12.4764C22.9864 13.9095 15 13.944 12.5 8.25221C10 2.5604 0 -1.01617 0 0.257361V32.8413C0 40.9873 12.0299 45.0604 14.28 45.0604H46.92C49.1701 45.0604 51 43.2336 51 40.9874V16.5494C51 14.3031 48.9615 12.0713 46.92 12.4763ZM46.92 16.5494V17.59L30.6 30.2632L14.28 17.592V16.5494H46.92ZM14.28 40.9874V22.7485L29.3474 34.4482C29.7047 34.7283 30.1458 34.8805 30.6 34.8805C31.0542 34.8805 31.4953 34.7283 31.8526 34.4482L46.92 22.7485L46.9241 40.9874H14.28Z" fill="#203D7C"/>
</svg>
