<svg width="50" height="50" viewBox="0 0 50 50" fill="none" xmlns="http://www.w3.org/2000/svg">
<path d="M25.2831 4.68743C13.8593 4.53314 4.53314 13.8593 4.68743 25.2831C4.83978 36.2392 13.7607 45.1601 24.7167 45.3124C36.1425 45.4687 45.4667 36.1425 45.3105 24.7187C45.1601 13.7607 36.2392 4.83978 25.2831 4.68743ZM37.6288 36.6454C37.5899 36.6875 37.5423 36.7205 37.4892 36.7421C37.4361 36.7637 37.3789 36.7733 37.3217 36.7703C37.2645 36.7673 37.2086 36.7518 37.1581 36.7248C37.1075 36.6978 37.0636 36.6601 37.0292 36.6142C36.1557 35.4714 35.086 34.4929 33.8701 33.7245C31.3837 32.1288 28.2333 31.2499 24.9999 31.2499C21.7665 31.2499 18.6161 32.1288 16.1298 33.7245C14.9139 34.4926 13.8442 35.4707 12.9706 36.6132C12.9363 36.6591 12.8923 36.6969 12.8418 36.7239C12.7912 36.7508 12.7354 36.7664 12.6782 36.7694C12.6209 36.7723 12.5638 36.7627 12.5107 36.7411C12.4576 36.7195 12.4099 36.6865 12.371 36.6445C9.50548 33.5511 7.88225 29.509 7.81243 25.2929C7.65325 15.79 15.4511 7.83587 24.9579 7.81243C34.4648 7.789 42.1874 15.5087 42.1874 24.9999C42.1907 29.3177 40.5625 33.4773 37.6288 36.6454Z" fill="black"/>
<path d="M24.9999 14.0625C23.0741 14.0625 21.3329 14.7842 20.0956 16.0957C18.8583 17.4072 18.2401 19.2207 18.3798 21.167C18.663 25 21.6327 28.125 24.9999 28.125C28.3671 28.125 31.3309 25 31.62 21.168C31.7645 19.2402 31.1512 17.4434 29.8934 16.1074C28.6512 14.7891 26.913 14.0625 24.9999 14.0625Z" fill="black"/>
</svg>
